<svg xmlns="http://www.w3.org/2000/svg" xmlns:xlink="http://www.w3.org/1999/xlink" viewBox="0,0,256,256" width="48px" height="48px" fill-rule="nonzero"><g fill="none" fill-rule="nonzero" stroke="none" stroke-width="1" stroke-linecap="butt" stroke-linejoin="miter" stroke-miterlimit="10" stroke-dasharray="" stroke-dashoffset="0" font-family="none" font-weight="none" font-size="none" text-anchor="none" style="mix-blend-mode: normal"><g transform="scale(5.33333,5.33333)"><path d="M44.485,37.985c-0.485,-7.485 0.015,-5.485 0.015,-10.985c0,-0.906 -0.056,-5.076 0.045,-5.977c0.247,-2.218 0.101,-4.459 -0.046,-6.687c-0.2,-3.044 0.486,-6.351 -2.014,-8.851c-1.538,-1.538 -4.441,-1.873 -6.613,-1.981c-2.172,-0.108 -8.372,-0.004 -11.372,0.496c-5.818,0.97 -6.389,0.278 -12.023,0.05c-2.055,-0.084 -4.887,-0.353 -6.492,0.935c-1.545,1.24 -2.985,2.015 -2.985,6.515c0,4.447 0.536,7.913 0.513,12.36c-0.009,1.699 -0.017,3.399 -0.026,5.098c-0.007,1.371 0.206,2.729 0.228,4.1c0.02,1.275 0.164,6.122 0.27,7.427c0.106,1.305 1.108,2.747 2.286,3.32c0.502,0.245 1.067,0.315 1.611,0.444c1.02,0.242 7.57,-0.211 8.104,-0.264c4.999,-0.5 5.514,-0.985 10.514,-0.985c1.388,0 5.097,0.957 6.485,0.985c3.512,0.072 5.396,0.184 6.5,0c3,-0.5 5,-3 5,-6" fill="#000000"></path><path d="M34.797,44.027c0.109,-1.56 0.061,-3.613 -0.026,-4.681c-0.14,-1.715 0.377,-3.419 0.389,-5.14c0.01,-1.53 -0.378,-3.037 -0.429,-4.566c-0.031,-0.943 0.067,-1.886 0.084,-2.829c0.021,-1.108 -0.068,-2.215 -0.157,-3.319c-0.092,-1.142 -0.184,-2.285 -0.276,-3.427c-0.111,-1.374 -0.06,-4.264 -1.938,-6.6c-0.823,-1.024 -3.589,-2.288 -3.944,-2.465c-2,-1 -3.87,-0.938 -5.234,-0.962c-1.364,-0.024 -2.804,-0.013 -4.134,0.293c-1.322,0.304 -3.108,1.146 -4.065,1.888c-1.412,1.094 -2.45,2.15 -3.648,4.355l-1.419,9.426c-0.5,3.5 -0.024,2.613 -0.252,5.924c-0.058,0.845 -0.203,4.589 -0.059,6.645c0.112,1.609 0.336,4.156 0.811,5.431c0,0 4.943,0.027 14.352,-0.979c2.485,-0.266 9.945,1.006 9.945,1.006z" fill="#2b7018"></path><path d="M40.962,43.547c0.86,-1.825 0.73,-4.021 0.823,-6.037c0.059,-1.269 -0.197,-3.557 -0.307,-4.823c-0.105,-1.211 -0.288,-2.417 -0.372,-3.63c-0.077,-1.106 -0.47,-2.029 -0.681,-3.34c-0.177,-1.095 -0.237,-1.825 -1.247,-2.594c-0.373,-0.284 -1.017,-0.526 -1.483,-0.582c-0.987,-0.119 -1.874,-0.341 -2.861,-0.46l-0.107,6.991l0.433,5.134l-0.412,4.417l0.242,5.245z" fill="#40ba1e"></path><path d="M41.075,28.744c-0.171,-0.473 -0.768,-0.912 -0.868,-1.056c-0.193,-0.276 -0.592,-0.602 -0.881,-0.776c-0.297,-0.179 -0.973,-0.445 -1.319,-0.46c-1.465,-0.06 -2.241,0.603 -3.173,1.012v3.428l0.326,2.398l-0.175,2.917l-0.395,4.263l-0.06,3.213l2.783,0.186l2.625,-0.23l1.187,-0.638l0.669,-5.782l-0.687,-8.161z" fill="#2b7018"></path><path d="M9.174,44.819c-0.648,0 -1.157,-0.024 -1.408,-0.083c-0.133,-0.032 -0.268,-0.06 -0.402,-0.087c-0.433,-0.09 -0.881,-0.184 -1.312,-0.394c-1.342,-0.654 -2.445,-2.257 -2.565,-3.729c-0.109,-1.349 -0.252,-6.263 -0.271,-7.46c-0.01,-0.626 -0.061,-1.25 -0.112,-1.875c-0.059,-0.728 -0.12,-1.481 -0.116,-2.235l0.026,-5.098c0.012,-2.247 -0.124,-4.285 -0.254,-6.255c-0.128,-1.92 -0.26,-3.904 -0.26,-6.103c0,-4.415 1.379,-5.497 2.84,-6.643l0.332,-0.263c1.607,-1.289 4.184,-1.168 6.254,-1.07l0.572,0.026c1.706,0.069 2.931,0.179 4.012,0.275c2.433,0.217 3.903,0.349 7.908,-0.319c3.026,-0.504 9.238,-0.613 11.479,-0.502c2.175,0.108 5.261,0.446 6.942,2.127c2.102,2.102 2.108,4.688 2.114,7.188c0.001,0.667 0.003,1.331 0.046,1.984c0.146,2.216 0.296,4.507 0.044,6.774c-0.078,0.695 -0.057,3.64 -0.047,5.055l0.004,0.868c0,2.134 -0.074,3.136 -0.139,4.021c-0.101,1.37 -0.174,2.36 0.123,6.932l0.001,0.032c0,3.292 -2.228,5.961 -5.418,6.493c-0.897,0.151 -2.228,0.117 -4.431,0.059c-0.642,-0.017 -1.359,-0.035 -2.162,-0.052c-0.716,-0.015 -1.931,-0.246 -3.217,-0.491c-1.274,-0.243 -2.59,-0.494 -3.257,-0.494c-3.167,0 -4.511,0.196 -6.373,0.468c-1.071,0.156 -2.284,0.333 -4.093,0.514c-0.052,0.006 -4.431,0.337 -6.86,0.337zM10.119,4.469c-1.443,0 -2.895,0.163 -3.821,0.906l-0.341,0.269c-1.373,1.077 -2.457,1.928 -2.457,5.856c0,2.166 0.13,4.133 0.257,6.036c0.132,1.988 0.268,4.043 0.256,6.326l-0.026,5.098c-0.003,0.712 0.056,1.443 0.113,2.15c0.052,0.646 0.104,1.291 0.115,1.939c0.022,1.39 0.165,6.129 0.268,7.395c0.092,1.129 0.973,2.408 2.006,2.911c0.318,0.156 0.687,0.232 1.078,0.314c0.144,0.03 0.288,0.06 0.43,0.094c0.893,0.212 7.168,-0.199 7.938,-0.276c1.786,-0.179 2.988,-0.354 4.048,-0.509c1.903,-0.278 3.278,-0.479 6.517,-0.479c0.761,0 2.064,0.249 3.444,0.511c1.189,0.227 2.418,0.461 3.051,0.474c0.804,0.017 1.523,0.035 2.167,0.052c2.142,0.055 3.436,0.089 4.241,-0.045c2.693,-0.449 4.575,-2.706 4.582,-5.491c-0.299,-4.627 -0.225,-5.645 -0.121,-7.053c0.064,-0.867 0.136,-1.85 0.136,-3.947l-0.005,-0.86c-0.015,-2.138 -0.025,-4.478 0.053,-5.173c0.243,-2.179 0.095,-4.426 -0.048,-6.598c-0.044,-0.673 -0.046,-1.359 -0.048,-2.047c-0.006,-2.404 -0.011,-4.674 -1.821,-6.484c-1.437,-1.437 -4.274,-1.735 -6.285,-1.835c-2.2,-0.108 -8.301,-0.003 -11.264,0.49c-4.132,0.688 -5.649,0.552 -8.161,0.329c-1.07,-0.096 -2.283,-0.204 -3.964,-0.272l-0.579,-0.026c-0.558,-0.027 -1.158,-0.055 -1.759,-0.055z" fill="#010101"></path><path d="M30.833,12.373c1.492,1.568 1.344,4.223 1.584,5.982c0.262,1.925 0.554,3.953 0.485,5.487c-0.123,2.714 0.089,3.685 -0.364,5.786c-0.482,2.236 -1.267,4.819 -2.241,6.889c-0.261,0.554 -0.642,1.032 -0.989,1.537c-0.594,0.864 -1.666,1.544 -2.378,1.884c-1.186,0.565 -4.774,1.108 -5.538,1.161c-3.042,0.211 -6.473,0.361 -8.376,-2.475c-0.751,-1.119 -3.163,-6.881 -3.203,-8.227c-0.05,-1.682 0.966,-10.178 1.286,-12.001c0.32,-1.822 1.726,-6.179 7.091,-7.787c5.365,-1.608 10.903,-0.064 12.643,1.764z" fill="#40ba1e"></path><path d="M10.5,44.5c-0.203,0 -0.394,-0.124 -0.469,-0.326c-0.374,-1.004 -0.649,-2.826 -0.841,-5.57c-0.15,-2.146 0.006,-5.939 0.059,-6.714c0.09,-1.305 0.094,-2.116 0.097,-2.832c0.005,-1.083 0.009,-2.019 0.314,-4.157c0.039,-0.273 0.292,-0.458 0.566,-0.424c0.273,0.039 0.463,0.292 0.424,0.566c-0.296,2.069 -0.299,2.93 -0.304,4.02c-0.003,0.731 -0.007,1.559 -0.099,2.896c-0.062,0.902 -0.198,4.595 -0.06,6.576c0.183,2.61 0.446,4.391 0.781,5.292c0.096,0.259 -0.036,0.546 -0.294,0.643c-0.057,0.02 -0.116,0.03 -0.174,0.03z" fill="#010101"></path><path d="M40.961,44.047c-0.071,0 -0.144,-0.015 -0.213,-0.048c-0.25,-0.118 -0.356,-0.416 -0.239,-0.666c0.656,-1.392 0.698,-3.073 0.739,-4.7c0.01,-0.386 0.02,-0.77 0.037,-1.146c0.046,-1 -0.115,-2.71 -0.232,-3.959l-0.073,-0.796c-0.046,-0.529 -0.107,-1.056 -0.168,-1.583c-0.079,-0.685 -0.158,-1.369 -0.206,-2.056c-0.04,-0.579 -0.173,-1.104 -0.328,-1.711c-0.124,-0.487 -0.252,-0.991 -0.348,-1.584l-0.03,-0.189c-0.151,-0.957 -0.234,-1.484 -1.026,-2.086c-0.288,-0.219 -0.844,-0.436 -1.24,-0.483c-0.504,-0.061 -0.982,-0.148 -1.46,-0.235c-0.458,-0.083 -0.917,-0.167 -1.401,-0.226c-0.274,-0.033 -0.469,-0.282 -0.437,-0.557c0.034,-0.274 0.279,-0.467 0.557,-0.437c0.504,0.061 0.982,0.148 1.46,0.235c0.458,0.083 0.917,0.167 1.401,0.226c0.572,0.068 1.298,0.355 1.726,0.681c1.111,0.846 1.249,1.717 1.408,2.727l0.029,0.186c0.088,0.549 0.211,1.031 0.33,1.497c0.16,0.627 0.311,1.219 0.357,1.888c0.046,0.671 0.124,1.341 0.201,2.01c0.062,0.537 0.124,1.074 0.17,1.611l0.073,0.79c0.12,1.278 0.285,3.03 0.235,4.099c-0.017,0.37 -0.026,0.747 -0.036,1.125c-0.043,1.73 -0.088,3.519 -0.834,5.102c-0.084,0.179 -0.264,0.285 -0.452,0.285z" fill="#010101"></path><path d="M22.359,14.911c-0.979,0.08 -1.826,-0.148 -2.805,-0.068c-0.551,0.045 -1.104,0.09 -1.656,0.06c-0.797,-0.043 -1.616,0.073 -2.411,0.142c-0.523,0.045 -1.453,0.14 -1.907,0.403c-0.686,0.398 -0.672,0.316 -1.357,0.715c-0.298,0.174 -1.257,0.824 -1.513,1.056c-1.373,1.241 -1.502,2.396 -1.7,3.974c-0.235,1.868 0.318,2.478 0.654,3.144c0.385,0.762 1.882,1.822 2.662,2.169c0.861,0.383 1.534,0.684 2.474,0.735c0.902,0.05 1.834,0.293 2.737,0.299c1.034,0.007 1.691,0.032 2.725,-0.003c0.52,-0.018 2.067,-0.349 2.802,-0.509c0.817,-0.179 2.451,-0.893 3.065,-1.461c0.521,-0.482 1.52,-1.614 1.748,-2.285c0.43,-1.262 0.443,-1.641 0.401,-3.131c-0.04,-1.396 -0.425,-3.462 -1.461,-4.142c-0.942,-0.619 -1.804,-0.862 -2.398,-0.93c-0.663,-0.075 -1.397,-0.092 -2.06,-0.168" fill="#1e4384"></path><path d="M21.336,14.906c0.918,0.434 2.156,1.439 2.503,2.547c0.347,1.108 -0.087,2.974 -0.738,3.937c-0.622,0.92 -1.682,1.471 -2.767,1.708c-1.085,0.237 -2.209,0.195 -3.319,0.151c-0.692,-0.027 -1.383,-0.054 -2.075,-0.081c-1.643,-0.064 -3.357,-0.413 -4.434,-1.656c-1.526,-1.761 -0.686,-3.26 0.202,-4.293l2.236,-1.435l3.35,-0.816z" fill="#9fdadf"></path><path d="M18.324,23.784c-0.447,0 -0.89,-0.018 -1.328,-0.035l-2.075,-0.081c-2.235,-0.087 -3.802,-0.686 -4.792,-1.828c-1.35,-1.558 -1.282,-3.222 0.201,-4.947c0.181,-0.209 0.496,-0.232 0.706,-0.053c0.209,0.18 0.233,0.496 0.053,0.706c-1.172,1.363 -1.233,2.452 -0.204,3.64c0.799,0.923 2.132,1.408 4.076,1.484l2.075,0.081c1.062,0.042 2.161,0.085 3.193,-0.14c1.094,-0.239 1.967,-0.771 2.459,-1.5c0.56,-0.83 0.977,-2.542 0.674,-3.507c-0.284,-0.904 -1.366,-1.831 -2.24,-2.245c-0.25,-0.118 -0.356,-0.417 -0.238,-0.666c0.118,-0.25 0.415,-0.358 0.666,-0.238c1.059,0.501 2.377,1.607 2.767,2.85c0.408,1.299 -0.084,3.306 -0.8,4.366c-0.637,0.942 -1.729,1.623 -3.075,1.917c-0.707,0.153 -1.417,0.196 -2.118,0.196z" fill="#010101"></path><path d="M19.071,41.705c-2.36,0 -4.896,-0.458 -6.47,-2.802c-0.818,-1.219 -2.9,-7.111 -3.268,-8.365c-0.078,-0.265 0.075,-0.543 0.339,-0.621c0.266,-0.08 0.543,0.075 0.621,0.339c0.385,1.316 2.449,7.063 3.138,8.089c1.664,2.479 4.575,2.489 7.927,2.254c0.854,-0.059 4.29,-0.604 5.357,-1.113c0.721,-0.344 1.672,-0.975 2.181,-1.716l0.251,-0.357c0.266,-0.373 0.516,-0.725 0.697,-1.109c0.871,-1.85 1.675,-4.321 2.205,-6.782c0.292,-1.354 0.297,-2.236 0.304,-3.457c0.003,-0.626 0.008,-1.34 0.049,-2.247c0.064,-1.411 -0.193,-3.29 -0.441,-5.106l-0.04,-0.291c-0.254,-1.865 -0.635,-4.016 -1.537,-5.827c-0.123,-0.247 -0.022,-0.547 0.225,-0.67c0.247,-0.124 0.548,-0.021 0.67,0.225c0.966,1.941 1.367,4.192 1.632,6.138l0.04,0.29c0.254,1.86 0.517,3.785 0.449,5.287c-0.041,0.891 -0.044,1.592 -0.048,2.208c-0.007,1.28 -0.013,2.206 -0.327,3.662c-0.545,2.531 -1.376,5.082 -2.278,6.997c-0.219,0.465 -0.507,0.871 -0.787,1.263l-0.242,0.344c-0.782,1.138 -2.168,1.858 -2.575,2.052c-1.27,0.605 -4.921,1.153 -5.718,1.208c-0.73,0.051 -1.531,0.107 -2.354,0.107z" fill="#010101"></path><path d="M41.075,29.244c-0.205,0 -0.396,-0.126 -0.47,-0.33c-0.082,-0.226 -0.379,-0.506 -0.556,-0.674c-0.112,-0.106 -0.194,-0.183 -0.252,-0.266c-0.13,-0.186 -0.457,-0.471 -0.729,-0.634c-0.257,-0.155 -0.85,-0.379 -1.082,-0.389c-0.98,-0.03 -1.611,0.288 -2.274,0.636c-0.224,0.117 -0.446,0.233 -0.676,0.334c-0.253,0.11 -0.548,-0.004 -0.659,-0.257c-0.111,-0.253 0.004,-0.548 0.257,-0.659c0.209,-0.092 0.411,-0.198 0.614,-0.304c0.715,-0.375 1.518,-0.799 2.78,-0.75c0.465,0.019 1.216,0.326 1.556,0.53c0.325,0.196 0.788,0.566 1.034,0.918c0.016,0.017 0.062,0.059 0.118,0.111c0.258,0.244 0.648,0.611 0.811,1.062c0.094,0.26 -0.041,0.546 -0.3,0.64c-0.058,0.022 -0.115,0.032 -0.172,0.032z" fill="#010101"></path><path d="M15.526,14.991c-0.422,0.101 -1.462,0.337 -1.884,0.438c-0.512,0.123 -1.221,0.548 -1.64,0.867c-0.419,0.318 -0.701,0.879 -0.535,1.378c0.109,0.327 0.392,0.574 0.707,0.713c0.315,0.139 1.347,0.182 1.691,0.183c2.154,0.003 3.156,0.004 4.827,-0.549c0.184,-0.061 0.614,-0.288 0.757,-0.418c0.159,-0.145 0.385,-0.292 0.466,-0.492c0.158,-0.393 0.171,-0.9 -0.005,-1.285c-0.163,-0.357 -0.557,-0.543 -0.93,-0.666c-0.952,-0.318 -2.458,-0.29 -3.454,-0.169" fill="#d6e5e5"></path><path d="M14.268,19.069c-0.127,0 -0.258,0 -0.394,0c-0.023,0 -1.408,-0.008 -1.901,-0.225c-0.479,-0.211 -0.836,-0.58 -0.98,-1.012c-0.219,-0.656 0.071,-1.452 0.706,-1.934c0.369,-0.28 1.168,-0.797 1.826,-0.955l1.94,-0.448c1.102,-0.132 2.643,-0.151 3.672,0.188c0.406,0.135 0.975,0.378 1.228,0.934c0.225,0.496 0.23,1.139 0.013,1.679c-0.109,0.27 -0.32,0.446 -0.489,0.587l-0.104,0.089c-0.209,0.19 -0.712,0.449 -0.937,0.523c-1.634,0.541 -2.685,0.574 -4.58,0.574zM15.612,15.484l-1.853,0.431c-0.409,0.098 -1.055,0.474 -1.455,0.778c-0.247,0.188 -0.458,0.539 -0.363,0.822c0.055,0.163 0.217,0.317 0.435,0.414c0.17,0.073 0.976,0.14 1.49,0.14c2.12,0 3.078,0.004 4.669,-0.524c0.138,-0.046 0.495,-0.239 0.578,-0.313l0.137,-0.118c0.067,-0.056 0.181,-0.15 0.202,-0.193c0.112,-0.28 0.114,-0.646 0.003,-0.891c-0.068,-0.149 -0.274,-0.28 -0.631,-0.398c-0.811,-0.269 -2.193,-0.269 -3.212,-0.148z" fill="#010101"></path><path d="M19.185,28.056c-0.304,0 -0.597,-0.003 -0.913,-0.008l-0.739,-0.008c-0.534,-0.003 -1.067,-0.083 -1.583,-0.16c-0.395,-0.059 -0.79,-0.119 -1.178,-0.14c-1.031,-0.057 -1.779,-0.39 -2.646,-0.775c-0.766,-0.34 -2.435,-1.462 -2.91,-2.402c-0.045,-0.089 -0.094,-0.177 -0.145,-0.267c-0.348,-0.624 -0.782,-1.4 -0.56,-3.165c0.21,-1.667 0.369,-2.934 1.861,-4.283c0.291,-0.263 1.279,-0.932 1.598,-1.117c0.362,-0.211 0.54,-0.295 0.717,-0.379c0.158,-0.074 0.317,-0.149 0.64,-0.336c0.515,-0.299 1.401,-0.408 2.115,-0.469l0.525,-0.05c0.638,-0.063 1.299,-0.126 1.956,-0.093c0.518,0.03 1.063,-0.016 1.589,-0.06c0.53,-0.043 1.013,-0.003 1.482,0.034c0.449,0.036 0.872,0.071 1.322,0.034l0.049,-0.004l0.049,0.006c0.324,0.037 0.665,0.06 1.007,0.083c0.357,0.024 0.715,0.048 1.054,0.087c0.488,0.056 1.477,0.261 2.615,1.008c1.511,0.993 1.67,3.961 1.687,4.546c0.042,1.5 0.034,1.948 -0.428,3.306c-0.281,0.827 -1.39,2.035 -1.882,2.491c-0.732,0.678 -2.469,1.401 -3.297,1.582c-1.539,0.336 -2.484,0.507 -2.892,0.521c-0.407,0.014 -0.757,0.018 -1.093,0.018zM17.541,15.395c-0.484,0 -0.985,0.05 -1.473,0.098l-0.538,0.051c-0.871,0.075 -1.442,0.188 -1.7,0.337c-0.36,0.209 -0.538,0.293 -0.714,0.376c-0.159,0.075 -0.317,0.149 -0.642,0.338c-0.29,0.168 -1.212,0.798 -1.43,0.994c-1.217,1.101 -1.342,2.096 -1.532,3.603c-0.189,1.502 0.127,2.068 0.433,2.616c0.057,0.103 0.113,0.202 0.164,0.303c0.311,0.615 1.686,1.612 2.419,1.938c0.845,0.376 1.452,0.646 2.298,0.693c0.419,0.023 0.845,0.085 1.271,0.149c0.503,0.075 0.979,0.146 1.442,0.149l0.745,0.008c0.651,0.009 1.203,0.016 1.959,-0.01c0.192,-0.007 0.8,-0.08 2.712,-0.498c0.775,-0.17 2.317,-0.863 2.832,-1.339c0.553,-0.512 1.435,-1.55 1.615,-2.079c0.41,-1.205 0.416,-1.514 0.375,-2.955c-0.041,-1.437 -0.444,-3.219 -1.235,-3.739c-0.965,-0.634 -1.78,-0.805 -2.18,-0.851c-0.324,-0.037 -0.666,-0.06 -1.007,-0.083c-0.34,-0.022 -0.681,-0.045 -1.006,-0.082c-0.509,0.038 -0.98,0 -1.435,-0.038c-0.449,-0.035 -0.873,-0.07 -1.32,-0.034c-0.558,0.045 -1.137,0.093 -1.723,0.062c-0.109,-0.005 -0.22,-0.007 -0.33,-0.007z" fill="#010101"></path><path d="M34.797,44.527c-0.012,0 -0.023,0 -0.036,-0.001c-0.275,-0.019 -0.483,-0.258 -0.464,-0.534c0.102,-1.442 0.066,-3.474 -0.026,-4.604c-0.083,-1.022 0.054,-2.031 0.186,-3.006c0.102,-0.751 0.197,-1.46 0.202,-2.178c0.005,-0.792 -0.101,-1.573 -0.212,-2.399c-0.094,-0.698 -0.192,-1.42 -0.216,-2.147c-0.02,-0.604 0.011,-1.208 0.041,-1.791c0.019,-0.355 0.037,-0.709 0.043,-1.065c0.021,-1.08 -0.069,-2.188 -0.155,-3.261l-0.277,-3.436c-0.013,-0.16 -0.023,-0.339 -0.035,-0.536c-0.086,-1.438 -0.23,-3.845 -1.793,-5.791c-0.307,-0.382 -1.182,-1.082 -3.606,-2.247l-0.172,-0.083c-1.736,-0.868 -3.367,-0.888 -4.677,-0.904l-0.343,-0.005c-1.256,-0.023 -2.706,-0.02 -4.013,0.28c-1.219,0.281 -2.956,1.086 -3.871,1.795c-1.35,1.047 -2.358,2.069 -3.515,4.199c-0.132,0.242 -0.435,0.333 -0.678,0.201c-0.243,-0.132 -0.333,-0.436 -0.201,-0.678c1.241,-2.284 2.326,-3.384 3.781,-4.512c1.028,-0.797 2.899,-1.667 4.259,-1.98c1.416,-0.326 2.938,-0.33 4.255,-0.306l0.337,0.005c1.338,0.017 3.17,0.039 5.112,1.01l0.158,0.077c2.111,1.015 3.404,1.84 3.953,2.522c1.764,2.194 1.919,4.8 2.012,6.357c0.011,0.189 0.021,0.362 0.034,0.516l0.276,3.427c0.089,1.105 0.18,2.239 0.159,3.369c-0.007,0.366 -0.026,0.731 -0.044,1.097c-0.03,0.588 -0.059,1.145 -0.041,1.707c0.022,0.677 0.117,1.373 0.208,2.046c0.111,0.825 0.227,1.677 0.221,2.541c-0.005,0.781 -0.11,1.556 -0.211,2.305c-0.13,0.965 -0.253,1.877 -0.179,2.792c0.094,1.152 0.135,3.21 0.026,4.756c-0.018,0.261 -0.237,0.462 -0.498,0.462z" fill="#010101"></path></g></g></svg>