<svg xmlns="http://www.w3.org/2000/svg" viewBox="0 0 800 800"><path fill="#C51111" d="M366.693 215.758c37.896-19.132 65.719-67.841 71.054-109.956 11.021 25.025 14.073 67.087 5.781 93.143s-28.355 45.876-51.812 59.929l-25.023-43.116zm285.906 127.147c3.87 18.91 15.747 45.413 26.667 61.333-15.12 2.4-38.213 4.29-53.333 6.69 7.63-20.05 19.036-47.973 26.666-68.023z"/><path d="M646.256 407.92a23.336 23.336 0 0 1 1.26 4.161c-.525.414-.955.826-1.401 1.26-.572.544-.898 1.003-1.001 1.433-.14.436-.081.847.09 1.273.296.851 1.016 1.791 1.38 2.875.314.936.548 1.912.683 2.909-1.198 5.311-4.061 10.419-7.81 14.727-1.24-.099-2.748-.628-3.425-.197-.904.584-.225 2.361-.774 3.397-1.441 2.775-4.601 3.288-7.363 3.363l-2.04.046c-.682-.003-1.242.056-1.918.148-1.3.197-2.422.748-3.489 1.798-2.54 2.641-5.298 4.572-8.865 5.35-1.226.309-2.531.423-3.809.649-5.213.541-10.57.505-15.963.232l-2.982-1.406c-3.418-1.599-6.858.135-10.129.264l-2.347-.27c-.496-.166-.984-.367-1.457-.697-1.014-.688-2.54-2.411-3.744-2.477-.86-.048-1.849.786-2.737 1-.722-.31-1.433-.538-2.129-.632-1.529-1.012-2.062-2.459-4.614-1.859-.158.938-.53 1.454-.785 2.159-.149.032-.298.04-.447.061-.67-.891-1.431-1.658-2.07-2.678-.425.398-.832.88-1.231 1.363-1.563-2.853-4.623-3.927-6.916-1.256-.597-.227-1.217-.362-1.875-.334-1.707.064-3.088 1.494-4.515 2.464l-.614.003c-1.895-.734-3.392-1.096-4.983-4.244-.32.437-.623.849-.921 1.224-1.938-1.626-6.438-.03-7.09 3.706-.06-.015-.111-.009-.171-.014-.582-.088-1.137-.237-1.703-.331-2.353-2.22-4.169-2.032-5.789-.599-.967.041-1.948.198-2.942.607-1.155.465-2.323.879-3.465 1.433l-1.723.787-.863.397-.877.465c-2.367 1.196-4.628 2.577-6.831 4.067-.38.282-.802.52-1.207.779-.621.118-1.255.232-1.864.406-.6.185-1.148.466-1.637.848-.606.484-.997 1.072-1.276 1.695-1.321.911-2.545 1.971-3.572 3.165-.948 1.28-1.742 2.656-2.025 4.316l-.096.115a65.08 65.08 0 0 0-2.113 1.435c-.382-.199-.656-.566-1.051-.714-.345.767-.566 1.669-.919 2.472a6.667 6.667 0 0 1-1.431 2.187c-.188.131-.818-.551-.988-.608.287 2.186-.975 2.429-3.324.757.403.813.151 2.053.587 2.905-.879-.062-1.616.378-2.212 1.128-.298.374-.56.825-.785 1.324-.21.509-.346 1.093-.463 1.684-.202 1.201-.346 2.431-.183 3.623.139 1.182.397 2.226.71 2.963l-.404.758-.324.793a34.79 34.79 0 0 0-.595 1.623 27.136 27.136 0 0 0-.504 1.667c-.113.569-.18 1.15-.235 1.732-.094 1.04-.136 1.935-.097 2.685.095.752.287 1.36.567 1.824.567.931 1.539 1.271 3.22 1.126.064.847.268 1.668.473 2.491l.613 2.466 3.022-.938-.01.103c.168-.098.354-.174.525-.263l5.417-1.682-.054-.232 1.145-.29c-.339-.945-.902-1.759-1.284-2.612-.313-.86-.598-1.728-.57-2.641.521-.554.912-1.078 1.195-1.594.298-.516.415-1.023.62-1.543.362-1.034.268-2.12.37-3.28l.229-1.04a5.52 5.52 0 0 1 .314-1.113c.245-.657.463-1.323.671-1.997.241-.665.551-1.316.821-1.979.144-.329.274-.664.433-.987l.549-.942c.387-.617.732-1.253 1.209-1.815.504-.596 1.22-1.108 1.795-1.693.597-.575 1.132-1.176 1.187-2.113.023-.229-.054-.505-.095-.767 1.869-2.197 3.647-4.54 5.69-6.844.529-.38 1.022-.814 1.587-1.14.294.091.588.181.872.292 2.091.853 3.413 1.245 4.614 1.274a4.17 4.17 0 0 0 1.686-.365c.573-.186 1.163-.477 1.829-.878.721-.479 1.673-.785 2.572-1.09.902-.323 1.875-.493 2.841-.67.957-.199 1.959-.284 2.951-.387.981-.127 1.991-.179 2.988-.268 3.999-.357 7.92-.863 11.88-3.504 1.588-1.065 3.106-1.876 4.676-2.717 4.556.129 9.145.5 13.759.982.648.686 1.341 1.095 2.195.601-.363 6.73 7.552 6.097 10.389 4.904.164-.406.086-.816.234-1.247 2.828.158 9.087-.574 10.845 1.651 1.085-1.197 2.297-1.719 3.22-2.939 1.2.081 2.392.191 3.6.242 1.068 1.995 1.761 4.886 3.255 6.063.583-2.434 1.771-3.644 3.064-4.228 1.301-.619 2.721-.615 3.762-.572.938.001 2.428.462 3.864.554.11.263.188.539.191.844 1.29.458 2.442-.013 3.686-.236a2.621 2.621 0 0 1-.154.548c1.915.436 3.297-.711 3.435-3.549l1.057-.167c1.04.51 2.012 1.205 3.007 1.73.993.49 2.014.819 3.12.645 2.338-.417 4.291-2.897 6.351-4.088 1.219-.662 1.906-1.421 2.486-2.241 1.7-.654 3.456-1.431 5.115-2.331 1.654-.908 3.277-1.871 4.802-2.966 2.291-.366 4.089-1.359 5.616-2.677 1.536-1.32 2.863-2.907 4.342-4.634 1.464-1.663 3.955-3.821 3.402-6.573-.003-.037-.014-.066-.027-.109 2.906-4.639 5.081-9.87 5.903-15.491.846-5.592.238-11.578-2.023-16.908l-8.641 3.635zm-157.352 65.243c-.453.818-.98 1.587-1.365 2.45l-.34-.076c.492-.852 1.142-1.587 1.705-2.374zm-5.139 8.715.064-.004c-.05.077-.118.145-.16.225.024-.077.064-.147.096-.221z"/><path d="M653.022 337.689c-.609.326-1.334.706-2.126 1.234a11.97 11.97 0 0 0-2.346 2.034 11.937 11.937 0 0 0-1.728 2.591c-.215.433-.397.855-.555 1.26l-.224.579c-.664.094-1.257.262-1.89.468-3.149 1.032-1.983 3.558-1.877 5.998.041 1.058.057 2.102.034 3.126l-6.125 15.511c-1.189.297-2.804.364-3.269 1.059-.626.944.716 2.294.713 3.444-.025 6.101-8.948 7.81-8.315 13.872.38 3.669.471 6.799-.528 10.042-.349 1.124-.775 2.246-1.141 3.388l-2.604 6.772a5.223 5.223 0 0 0 5.649 7.04l.062-.01c2.315-.358 4.643-.697 6.994-1.005.963.312 1.91.583 2.827.86 3.263.958 5.858-1.448 8.583-2.258l2.037-.234c.452.055.905.145 1.372.363 1.002.451 2.655 1.799 3.661 1.602.724-.139 1.368-1.167 2.056-1.563.663.149 1.3.22 1.896.164 1.473.673 2.21 1.967 4.179.871-.059-.949.143-1.526.213-2.266.116-.061.238-.098.357-.148.729.742 1.508 1.335 2.226 2.22.27-.467.51-1.015.746-1.562 1.835 2.497 4.467 3.034 5.89.052.526.134 1.05.179 1.584.048 1.385-.327 2.287-1.878 3.336-3.046l.508-.071c1.663.529 2.964.7 4.636 3.715.207-.459.406-.892.607-1.289a.747.747 0 0 0 .139.093 2.078 2.078 0 0 0 2.95-1.381l2.734-11.838c.234-1.013-.309-1.983-1.348-2.566-1.04-.58-2.544-.833-4.27-.278-.004-.05-.025-.084-.039-.129-.091-.458-.137-.91-.185-1.365 1.425-2.626.918-3.756-.67-4.461-.204-.694-.49-1.365-.962-1.994-2.198-2.92-4.345-6.052-6.328-9.41-.18-.297-.31-.628-.461-.947.055-.98.149-1.97-.258-2.764-.251-.498-.66-.838-1.142-1.105-.766-2.224-1.728-4.329-4.174-5.642l-.044-.104-.035-1.963c.368-.214.812-.302 1.147-.538-.898-.896-2.039-1.822-2.103-3.155.035-.175.927-.334 1.079-.426-1.696-.641-1.006-1.567 1.76-2.369-.818-.045-1.515-.656-2.328-.76 1.386-1.003 1.172-2.415.307-3.721-.858-1.304-2.31-2.524-3.497-3.078.124-1.571.25-3.1.001-4.53-.345-2.545-.913-3.47-4.23-2.812-.297-1.319-.934-3.045-2.02-4.463-1.075-1.442-2.397-2.409-3.343-3.072l-.318 3.148-.055-.113c.01.221.002.434 0 .649l-.57 5.644c-.069.07-.142.136-.218.199-.05.38-.099.752-.128 1.127-.662.349-1.485.371-2.048.136-.576-.228-.826-.611-.844-.799-.078-.428.286.368.425.737.175.447.307.902.373 1.385-.712 1.35-.884 2.622-.72 3.824.158 1.207.612 2.368 1.244 3.472l.782 2.292c.938 2.861 2.284 5.573 3.111 8.466.444 1.523.194 3.609 1.768 4.616.19.13.467.187.719.266a41.321 41.321 0 0 0 2.054 3.82 46.059 46.059 0 0 0 2.531 3.601l.8 1.699c-.132.267-.262.539-.41.801-2.26 3.877-2.032 5.553-.117 8.452 1.885 2.785 3.042 6.107 4.523 9.335 1.43 3.228 3.242 6.371 6.079 8.609l5.787-13.458c-1.08.568-2.083 1.307-3.06 2.247-1.277 1.222-2.478 2.245-3.715 3.289a725.12 725.12 0 0 1-11.974 1.456c-.691-.546-1.363-.8-1.981-.14-1.094-6.666-7.708-4.334-9.764-2.556-.049.431.104.814.073 1.266-2.376.465-7.406 2.48-9.284.608-.657 1.376-1.561 2.13-2.094 3.482l-3.032.389c-1.241-1.798-2.308-4.509-3.72-5.457-.119 4.396-2.482 5.295-4.232 5.571l5.625 6.924c.08-.209.162-.401.241-.577.306-.703 1.206-1.643 1.76-2.664.279.025.559.08.84.199.874-.737.84-1.751 1.092-2.73.13.086.268.185.435.34 1.126-1.129.629-2.563-1.824-3.981l.316-.81c1.806-.958 4.092-1.301 4.83-2.858.766-1.636-.275-4.143-.008-6.031.143-1.1.014-1.92-.25-2.749l3.259-8.231c3.123-2.282 3.431-5.186 4.71-8.443.637-1.609 2.189-3.547.988-5.706-.013-.03-.03-.052-.053-.087l4.727-12.003 2.341-6.018.583-1.506.257-.668c-.005-.004-.049.019-.15.05-.19.062-.665.139-1.207-.063-.541-.191-1.054-.647-1.37-1.191l.755-9.343zm10.907 24.705-.733-1.941.298-.176.435 2.117zm-1.356-7.204-.051.033.022-.2.029.167z"/><path fill="#C51111" d="M216.026 227.983c-22.743-8.105-39.481-23.937-53.966-43.253s-13.179-52.813-4.461-75.329c24.697 32.688 44.901 69.28 81.939 86.791l-23.512 31.791z"/><path d="m217.806 233.824 5.119-6.265c.634.183 1.286.2 2.024.163 1.847-.101 3.161-1.402 4.181-3.16 1.028-1.762 1.766-3.979 2.684-6.018l2.366-5.15a738.786 738.786 0 0 0 10.268-13.569 6.105 6.105 0 0 0-2.183-9.094l-.116-.056c-3.291-1.619-6.63-3.177-9.838-4.902-.453-1.547-.545-3.537-1.565-4.299-1.348-1.062-3.342.141-5.034-.246-2.258-.488-4.019-1.68-5.547-3.122a23.89 23.89 0 0 1-2.14-2.321c-.641-.848-1.248-1.721-1.848-2.583a65 65 0 0 0-1.813-2.516c-.623-.8-1.203-1.624-1.879-2.33-1.322-1.446-2.947-2.495-4.951-3.179-2.466-.794-4.833-1.584-6.923-2.755a36.772 36.772 0 0 1-3.13-1.853c-1.021-.679-1.935-1.513-2.879-2.384-1.283-1.236-2.594-2.504-3.79-3.877-4.868-5.48-9.05-11.582-12.961-17.864l-.924-4.326a11.881 11.881 0 0 0-.548-1.751 11.61 11.61 0 0 0-.732-1.612c-.559-1.022-1.249-1.948-1.994-2.833-.738-.888-1.557-1.718-2.304-2.583-.732-.875-1.439-1.753-2.039-2.678l-1.381-2.891c-.186-.675-.334-1.363-.342-2.111.009-1.635.727-4.475.015-5.886-.511-1.018-1.994-1.664-2.783-2.564l-.118-.703a6.924 6.924 0 0 0-12.791-2.375l-1.462 2.503c-.44.752-.808 1.493-1.084 2.24-1.754 1.95-3.573 2.493-3.639 6.291 1.045.381 1.524.994 2.281 1.469.003.217-.022.431-.032.645-1.186.814-2.244 1.803-3.589 2.585.365.66.81 1.297 1.311 1.927-1.789.954-3.144 2.505-3.72 4.265-.507 1.767-.216 3.733 1.174 5.44a7.246 7.246 0 0 0-.565 2.634c-.035 1.21.315 2.321.806 3.377.532 1.063 1.195 2.071 1.734 3.096l-.041.855c-.522 1.295-.839 2.481-1.519 3.594-.684 1.115-1.73 2.159-3.611 3.229l1.439 1.323c-.883 1.338-.985 3.583-.143 5.618.853 2.04 2.426 3.816 4.621 4.301-.012.083 0 .154 0 .237-.054.804-.155 1.571-.252 2.355-2.549 3.247-1.973 5.777-.217 8.017.188 1.337.574 2.69 1.151 4.07.622 1.61 1.533 3.179 2.332 4.763.761 1.595 1.814 3.12 2.771 4.665.907 1.566 2.137 3.014 3.252 4.503l.854 1.11c.281.353.546.633.82.954l1.627 1.88c.391.444.735.943 1.118 1.413.499 1.486.945 3.033 1.966 4.199.646.723 1.393 1.185 2.178 1.521a27.623 27.623 0 0 0 4.019 4.496c1.545 1.285 3.237 2.366 5.269 2.958l.137.137c.538.941 1.089 1.876 1.657 2.808-.267.427-.734.696-.941 1.145 1.935.984 4.049 1.939 5.448 3.723.128.258-.782.843-.876 1.033 2.651.205 2.743 1.774.311 4.1 1.04-.285 2.525.261 3.585.026-.261 1.006.053 2.009.797 2.886.743.877 1.871 1.671 3.142 2.332 2.6 1.271 5.773 1.946 7.737 1.81.948 1.001 1.922 1.985 2.98 2.855 1.056.872 2.115 1.761 3.3 2.439 4.171 2.548 6.258 2.915 8.013-.578l1.431.627c.8.322 1.723.64 2.63.893 1.834.52 3.753.799 5.481.909l-1.015-3.549.166.071c-.133-.223-.226-.452-.339-.675l-1.819-6.363-.098-.206-.301-1.298c-.022-.42.055-.617.016-.65-.093-.077.019.2-.918-.075-1.391-.336-2.747-.665-3.953-1.417-.945-1.815-2.182-3.027-3.551-4.091-.691-.517-1.441-.945-2.222-1.344a24.192 24.192 0 0 0-2.417-1.144c-.945-.539-1.887-1.168-2.936-1.878-3.557-2.473-7.302-4.845-10.379-8.04-1.647-1.678-2.765-4.362-5.239-5.069-.308-.095-.67-.068-1.015-.084-3.099-2.994-6.366-5.852-9.801-8.754-.624-.725-1.207-1.491-1.813-2.234.035-.393.067-.789.126-1.174.473-2.826.562-4.817.041-6.528l-.357-1.161a6.644 6.644 0 0 0-.477-1.047c-.377-.703-.964-1.344-1.516-2.257-1.404-1.945-2.338-4.339-2.983-6.863-.653-2.531-1.001-5.21-1.356-7.88-.682-5.382-1.371-10.685-4.273-16.125-.617-1.091-1.062-2.164-1.552-3.23-.46-1.066-.962-2.133-1.345-3.219.499-6.16 1.552-12.296 3.178-18.235.971-.721 1.61-1.522 1.253-2.724 1.834.442 3.244.18 4.429-.423 1.179-.609 2.053-1.607 2.682-2.792l-20.342.183c.974 3.4 3.466 6.779 5.09 8.174.513-.055.866-.411 1.393-.5.926 1.77 2.741 4.409 4.144 7.044.685 1.325 1.351 2.622 1.787 3.81.427 1.192.608 2.284.391 3.172 1.969.482 3.358 1.562 5.218 1.822l2.557 4.294c-1.091 2.561-3.365 5.33-3.274 7.8 2.784-.975 4.878-.446 6.459.621.793.534 1.451 1.209 2.021 1.896a18.85 18.85 0 0 1 1.503 1.944c.737 1.052 1.48 3.024 2.514 4.694-.171.301-.369.568-.66.776.601 1.715 1.996 2.652 3.203 3.871a2.762 2.762 0 0 1-.645.19c.529 1.198 1.315 2.015 2.371 2.279 1.067.255 2.346.002 3.792-.846l.997 1.054c.321 1.473.407 2.98.661 4.404.287 1.389.765 2.676 1.794 3.745 1.102 1.097 2.58 1.888 4.222 2.456 1.627.59 3.295 1.104 4.653 1.907 1.567.948 2.865 1.227 4.138 1.406 1.954 1.479 3.897 2.976 5.942 4.309l3.03 2.059c1.007.693 2.062 1.293 3.091 1.944a18.009 18.009 0 0 0 2.713 3.138c.98.875 2.039 1.578 3.136 2.244 1.099.661 2.246 1.261 3.432 1.872 1.2.571 2.44 1.15 3.716 1.811 2.502 1.349 5.639 3.796 8.898 2.904.046-.007.079-.022.13-.042l1.59.775-1.82-7.243c-7.284 9.811-14.124 19.704-21.036 30.041l3.19 10.465zm-36.407-19.126c.892.796 1.858 1.517 2.784 2.278l-.161.378c-.876-.889-1.788-1.737-2.623-2.656zm9.352 8.736.015-.073.217.263-.232-.19zm170.089-9.415 4.188 8.32c-.378.482-.611 1.077-.826 1.785-.532 1.778.224 3.759 1.534 5.722 1.309 1.975 3.167 3.933 4.807 5.955l4.149 5.142a709.425 709.425 0 0 0 11.743 20.994l.048.082a6.013 6.013 0 0 0 8.37 2.09l4.039-2.505c1.339-.848 2.648-1.749 3.972-2.622 1.811.215 3.833.837 5.279.071 1.962-1.039 1.927-3.61 3.275-5.266 3.549-4.438 8.43-6.53 13.181-9.15l1.786-.97a47.24 47.24 0 0 0 1.716-1.068c1.125-.738 2.236-1.502 3.25-2.376 1.984-1.792 3.748-3.857 4.76-6.566 2.513-6.498 4.433-12.037 7.302-18.111.914-2.152 2.04-4.256 2.83-6.505 1.957-4.374 3.356-8.974 4.616-13.632l.759-3.49c.244-1.164.526-2.327.686-3.492.356-2.328.8-4.659 1.01-6.986.677-1.728 1.416-3.483 1.945-5.17.5-1.513.747-3.023.832-4.512.07-1.488-.094-2.951-.287-4.389-.359-2.881-1.209-5.629-1.51-8.328.002-1.324-.106-2.64-.154-3.961.083-.86.206-1.717.48-2.587.57-1.86 2.054-4.901 1.804-6.899-.179-1.434-1.496-2.776-2.017-4.131.101-1.268.146-2.498-.016-3.653.273-1.404.759-2.455.972-3.641.207-1.184.184-2.512-.73-4.429-1.107.108-1.838-.282-2.729-.413-.099-.222-.172-.455-.259-.681.686-1.399 1.246-2.914 2.039-4.329-.641-.509-1.365-.953-2.086-1.382 2.422-3.609 1.983-8.939-2.231-11.299-.102-1.023-.318-2.042-.734-3.045-.461-1.206-1.329-2.164-2.219-3.011-.905-.847-1.9-1.581-2.831-2.351l-4.604-3.806a4.839 4.839 0 0 0-7.556 5.574l.202.491-.127.886c-1.227 2.587-2.057 4.712-6.122 5.932.393.538.761 1.058 1.088 1.569-1.19 1.057-1.826 3.083-1.696 5.205.083 2.11.939 4.342 2.707 5.717-.049.073-.07.144-.107.221-.413.727-.85 1.391-1.289 2.062-3.693 1.801-4.524 3.897-4.29 6.728-.594 1.162-1.166 2.371-1.556 3.755-1.845 6.424-4.227 12.944-7.287 19.391a20.24 20.24 0 0 1-.912 1.701c-1.271 1.098-2.528 2.18-3.35 3.583-.503.884-.722 1.775-.814 2.669-2.505 3.484-4.79 7.008-5.503 11.38l-.121.168-2.685 2.162c-.454-.215-.77-.657-1.239-.809a30.084 30.084 0 0 1-1.399 3.118c-.538 1.027-1.225 1.967-2.162 2.682-.263.136-.846-.778-1.039-.869-.223 2.709-1.85 2.779-4.068.241.25 1.019-.369 2.439-.214 3.522-.974-.337-1.976-.129-2.916.46-.937.593-1.83 1.549-2.669 2.631a18.688 18.688 0 0 0-1.165 1.752 22.656 22.656 0 0 0-1.03 1.809c-.61 1.219-1.086 2.398-1.351 3.317l-3.651 1.732a60.917 60.917 0 0 0-3.464 1.861c-1.973 1.213-3.344 2.041-3.959 3.096-.612 1.058-.537 2.219.374 3.979l-3.19 1.874c-2.088 1.225-4.059 3.073-5.411 4.789l3.512 1.139-.182.113c.273.007.521.054.78.081l6.295 2.042c.092.052.179.106.258.161.413.168.818.328 1.229.472.399.59.299 1.087.2 1.118-.012.006-.023.007-.034.002l-.015-.011c-.007-.003-.02-.004.048-.056l.564-.458 1.101-.895c1.471-1.147 2.83-2.284 4.436-3.165 4.839-.387 8.669-3.228 11.89-6.745l3.419-3.083c4.234-3.862 7.886-8.278 11.801-12.407 2.058-2.179 5.18-4.186 5.91-7.271.102-.379.067-.782.065-1.182 3.157-4.455 5.741-9.272 7.842-14.348.62-1.002 1.2-2.026 1.781-3.05.41-.168.824-.344 1.236-.487 6.07-2.072 8.123-4.488 10.466-10.611 2.673-6.973 6.396-13.915 9.11-21.312 2.69-7.359 4.246-15.244 2.416-22.898l-1.083-4.355-12.128 1.764 2.765 2.779c2.579 6.657 4.422 13.728 5.787 20.891-.491 1.244-.641 2.426.209 3.547-1.918.478-3.126 1.565-3.825 2.957-.349.697-.571 1.472-.689 2.293a12.347 12.347 0 0 0-.165 2.592c.183 3.542 1.331 7.41 2.403 9.317.5.139.955-.082 1.48.029.192 2.126.915 5.492 1.031 8.71.226 3.22-.125 6.26-1.363 7.644 1.498 1.493 2.068 3.258 3.484 4.605l-.182 2.723-.299 2.701c-2.454 1.509-5.818 2.285-7.483 4.084 2.698 1.077 3.94 2.971 4.259 4.908.159.968.128 1.959.013 2.886-.058.464-.137.912-.224 1.334-.104.414-.23.795-.341 1.146-.199.632-.581 1.408-.998 2.252l-.644 1.308c-.242.442-.475.893-.682 1.346a2.26 2.26 0 0 1-1.01-.136c-.587.699-.898 1.454-1.118 2.247-.231.789-.439 1.593-.697 2.41a2.91 2.91 0 0 1-.464-.487c-.839.987-1.118 2.051-.979 3.101.153 1.053.849 2.145 2.148 3.208l-.672 1.38c-1.297.871-2.775 1.409-4.035 2.067-1.25.665-2.43 1.37-3.272 2.559-.439.626-.75 1.351-1.02 2.123-.297.757-.532 1.572-.756 2.409-.232.832-.42 1.707-.703 2.521-.285.813-.606 1.604-1.004 2.324-.889 1.699-1.364 2.949-1.656 4.28-3.439 3.971-7.139 7.748-11.146 11.212-5.983 2.011-9.3 5.722-14.484 9.275-1.074.702-2.366 1.428-3.625 2.196-1.261.768-2.443 1.646-3.242 2.775l8.021 2.07a4.979 4.979 0 0 0-1.588-.96c-.044-.022-.081-.03-.137-.045a614.507 614.507 0 0 0-11.48-18.934c-3.943-6.249-8.041-12.501-12.217-18.88l-10.485-3.109zm33.638-27.989-2.56 2.793-.366-.187 2.926-2.606zm-10.215 8.451.067.032-.313.149.246-.181z"/><path fill="#7A0838" d="M482.234 302.635c9.779 5.397 14.937 16.826 19.052 27.626a499.478 499.478 0 0 1 20.289 67.124c5.605 24.674 21.382 85.335 15.394 109.909-10.569 43.371-60.215 37.712-95.256 63-44.126-70.208-58.731-156.945-37.3-238.088-.001 0 64.862-36.723 77.821-29.571z"/><path fill="#C51111" d="M424.412 382.206s64.863-36.723 77.822-29.572c3.958 2.184 7.15 5.367 9.831 9.086a498.167 498.167 0 0 0-10.78-31.46c-4.115-10.801-9.273-22.23-19.052-27.627-12.959-7.151-77.822 29.572-77.822 29.572-18.973 71.838-9.681 148.053 23.315 213.309-15.849-52.547-17.613-109.169-3.314-163.308z"/><path d="M484.762 298.053c-2.368-1.234-4.412-1.453-6.185-1.554-1.784-.072-3.378.067-4.911.267-3.057.413-5.858 1.102-8.592 1.877-1.313-.237-2.751-.31-4.372-.325-4.052-.02-7.554 1.144-10.842 2.791-3.296 1.649-6.394 3.791-9.771 5.847l-8.703 5.34a553.453 553.453 0 0 0-29.551 15.356l-.091.051a4.948 4.948 0 0 0-2.391 3.167l-2.856 12.12-.713 3.03c-.226 1.012-.38 2.04-.573 3.059l-1.102 6.127c-1.406 2.287-3.325 4.327-3.937 7.16-.722 3.857.674 6.751.627 10.518-.177 4.996-.436 9.774-1.167 14.434-.332 2.331-.812 4.633-1.189 6.929l-1.08 6.868c-.368 2.285-.731 4.57-1.049 6.863-.183 1.146-.258 2.294-.331 3.444-.074 1.15-.131 2.302-.168 3.458a76.88 76.88 0 0 0 .078 6.969c.073 1.167.161 2.339.314 3.512a56.79 56.79 0 0 0 .699 3.518c.66 2.849 1.284 5.601 1.868 8.311.301 1.354.553 2.701.866 4.036l.983 3.992c1.309 5.317 2.22 10.709 3.543 16.473l1.218 6.08c.402 2.041.775 4.098 1.334 6.11l2.924 12.267c1.108 4.053 2.336 8.075 3.5 12.114 1.087 4.064 2.616 7.987 3.956 11.97l2.07 5.955c.735 1.968 1.56 3.903 2.336 5.855l2.461 9.326c1.672 5.325 4.114 10.08 6.648 14.575 2.755 4.392 5.665 8.498 8.165 12.721 1.141 2.109 2.424 4.138 3.63 6.211.701 1.388 1.368 2.786 1.926 4.255.492 1.274 1.011 2.902 1.676 4.749a5.053 5.053 0 0 0 6.464 3.043l.029-.01 3.15-1.155a43.375 43.375 0 0 0 3.165-1.282c1.036-.457 2.041-.912 2.837-1.448 1.953-1.249 3.598-3.255 5.569-4.607l2.885-1.126c.942-.379 1.85-.779 2.758-1.161 4.513-1.088 6.733-.52 12.905-3.751-.176-.951.475-1.774.72-2.631.373-.183.763-.347 1.143-.522 2.302.04 4.786-.097 7.063.126.897-.77 1.697-1.592 2.498-2.417 2.927.403 6.522.107 10.06-.997 3.524-1.095 6.97-2.962 9.345-5.549 1.742-.522 3.494-1.27 5.258-2.177 4.575-2.457 7.418-5.883 10.345-9.326.508-.376 1.024-.737 1.506-1.157 2.508-1.553 4.673-3.164 6.812-4.641 2.176-1.45 4.324-2.764 7.036-3.788l.755-3.305c2.237-2.126 4.819-6.72 5.721-11.375.292-1.15.371-2.307.48-3.408.086-1.105.134-2.132.032-3.205-.124-2.097-.709-3.695-1.457-4.699a4.98 4.98 0 0 0 .102-.506c.331-1.676.681-3.256.936-4.838 2.839-5.735 2.707-10.75 1.304-15.88-.05-2.636-.24-5.336-.681-8.187-2.058-13.246-5.041-26.452-8.221-39.976-.292-1.198-.529-2.445-.799-3.673-.194-3.1-.357-6.212-1.098-9.317a26.398 26.398 0 0 0-1.751-5.019c-.821-4.083-1.735-8.138-2.861-12.035-1.138-3.914-2.434-7.589-4.156-11.165l-.091-.391c-.269-2.17-.536-4.341-.857-6.511.356-.311.863-.122 1.168-.542-1.505-3.981-3.339-8.213-4.175-12.708-.055-.549.968-.195 1.107-.35-2.471-3.826-2.182-6.227.799-6.282-1.048-.964-2.328-3.698-3.411-4.806 1.073-2.095-.19-7.194-2.319-12.404-2.112-5.217-5.078-10.525-7.064-13.225a196.885 196.885 0 0 0-2.03-7.796c-.746-2.608-1.607-5.262-2.679-7.915-1.888-4.739-3.824-8.123-5.578-10.057-1.776-1.946-3.352-2.433-4.848-1.652-1.435-1.887-2.99-3.734-4.811-5.407-1.824-1.661-3.823-3.203-6.041-4.448l-1.558 2.755-.226-.177c.018.229-.034.431-.039.646l-2.792 4.938.592.362c-.247.316-.478.628-.741.935 1.307.659 2.472 1.501 3.623 2.32 1.106.894 2.182 1.802 3.15 2.842a27.506 27.506 0 0 1 4.926 7.083 89.742 89.742 0 0 0 2.903 10.698c1.212 3.663 2.739 7.43 4.344 11.184a370.57 370.57 0 0 1 2.648 7.486c3.156 9.359 6.384 18.772 8.751 28.406 1.263 5.094 1.758 11.198 3.981 15.85.275.589.626 1.047.946 1.552l1.766 7.03a402.594 402.594 0 0 0 1.904 7.023 686.49 686.49 0 0 0 4.093 13.975l1.382 6.162a43.522 43.522 0 0 1-.303 1.951c-1.826 9.05-1.29 14.113 1.102 25.086 1.343 6.251 2.254 12.721 2.825 19.207.289 3.243.486 6.489.582 9.694.116 3.212.106 6.379-.009 9.435-.117 3.047-.349 6.016-.779 8.601l-.359 1.845-.523 2.032c-.283 1.388-.779 2.639-1.133 3.97-.901 2.541-1.788 5.068-2.993 7.427l-.416.913c-.148.299-.319.582-.475.877l-.937 1.787c-.722 1.131-1.339 2.368-2.133 3.502-2.409 3.75-5.424 6.912-8.858 9.886-5.715 3.258-11.984 5.814-18.415 8.172-6.43 2.361-13.051 4.536-19.661 6.939-2.257.173-4.486.645-6.529 2.087-1.564-2.581-6.772-2.021-12.711.301-2.965 1.141-6.073 2.808-8.929 4.609-1.422.92-2.773 1.9-4.031 2.83a98.322 98.322 0 0 0-3.364 2.823l12.428 2.419a48.056 48.056 0 0 0-2.146-2.558c-.526-.058-.68.463-1.199.46-1.074-1.714-2.515-3.894-4.09-6.294-.781-1.204-1.623-2.447-2.419-3.742l-2.251-3.988c-1.469-2.662-2.84-5.287-3.884-7.603a37.685 37.685 0 0 1-.715-1.677 30.52 30.52 0 0 1-.5-1.571c-.284-.993-.464-1.872-.516-2.603-2.311-1.916-4.275-4.643-6.432-6.256l-1.081-2.333-.964-2.384-1.928-4.767c.275-1.915.854-3.661 1.307-5.448.448-1.785.762-3.607.661-5.739-2.731-.402-4.945-2.993-6.707-6.179-.863-1.597-1.684-3.317-2.267-5.022a90.144 90.144 0 0 1-1.422-4.754c-.67-2.515-1.411-6.54-2.245-10.357.201-.321.434-.556.737-.597-.25-3.432-1.366-6.398-2.269-9.674.174.075.369.18.641.411a20.389 20.389 0 0 0-.637-3.423c-.305-1.04-.587-1.997-1.016-2.815-.829-1.642-2.003-2.782-3.512-3.241l-.54-2.906c.088-1.353.233-2.627.387-3.864.156-1.238.295-2.435.502-3.658.363-2.438.569-4.905.243-7.776-.837-5.997-3.07-12.375-4.072-18.611l-.78-4.644a43.98 43.98 0 0 0-.839-3.634l-.235-7.508c-.016-.626-.048-1.251-.05-1.877l.039-1.877.077-3.754.152-7.509.038-1.877.133-1.873.272-3.745a79.435 79.435 0 0 0 1.648-7.973c.175-1.305.418-2.592.643-3.879.217-1.288.41-2.575.588-3.871.355-2.591.649-5.212.944-7.92.324-2.703.855-5.462 1.348-8.371.258-1.436.585-2.998.914-4.618.333-1.62.63-3.306 1.031-4.953.723-3.312 1.194-6.605.875-9.415-.004-.082-.016-.135-.032-.221l.923-3.925-1.964 2.547c12.162-6.768 24.672-13.206 37.337-18.955 6.34-2.856 12.752-5.548 19.214-7.744 3.225-1.083 6.477-2.051 9.645-2.678 1.577-.309 3.138-.525 4.554-.569 1.39-.071 2.693.189 3.03.397l4.525-8.216zm34.951 71.036-2.085-7.104.26-.313c.621 2.471 1.239 4.94 1.825 7.417zm-6.714-25.16c-.016.023-.022.044-.037.072l-.138-.652.175.58z"/><path fill="#C51111" d="M435.918 339.048c-6.323-29.03-12.726-58.308-24.945-85.39s-30.86-52.16-56.661-66.892c-31.942-18.238-72.93-18.427-106.054-2.435-56.974 27.506-102.123 127.431-110.256 188.254-12.687 94.875-4.611 192.486 33.3 280.377 6.406 14.851 7.333 37.505 35.473 37.031 51.892-.874 40.683-2.169 51.553-17.179 10.869-15.007 33.05-100.57 36.639-118.772 15.359-.015 31.822-.025 32.5-.03 38.037-.287 10.752 10.532 49.511 106.851 3.847 9.559 8.507 23.901 18.808 23.668 54.731-1.236 62.076 4.525 70.285-45.236 15.276-92.611-10.177-208.535-30.153-300.247z"/><path fill="#7A0838" d="M466.068 639.295c-8.21 49.76-15.55 44-70.28 45.24-10.3.23-14.96-14.11-18.81-23.67-38.76-96.32-11.47-107.14-49.51-106.85-.68 0-17.14.01-32.5.03-3.59 18.2-25.77 103.76-36.64 118.77-10.87 15.01.34 16.3-51.55 17.18-28.14.47-29.07-22.18-35.48-37.03-32.85-76.16-43.3-159.64-37.24-242.29 6.63 12.36 11.19 26.19 16.1 39.41 8.15 21.96 19.58 45.02 40.79 54.95 17.3 8.11 37.47 5.72 56.41 3.16 29.58-4 59.15-8 88.73-11.99 18.91-2.56 39.22-5.77 52.92-19.06 14.22-13.79 17.75-34.93 20.53-54.54 5.79-40.79 11.58-81.56 17.36-122.34 3.37 12.83 6.2 25.83 9.02 38.78 19.98 91.72 45.43 207.64 30.15 300.25z"/><path d="m268.526 560.195 40.021-.053c2.813.679 5.996 1.249 9.617 1.846 2.263.371 4.503.659 6.729.877 2.268.221 4.362.356 6.374.482.973.086 2.024.109 2.915.209l1.383.109 1.249.146c1.592.185 2.968.476 3.337.618.076.043.118.059.22.042.014.033.052.011.121 0 .034.067.106.039.203.115.087.142.206.197.342.378.555.681 1.241 2.365 1.841 4.192 1.22 3.757 2.296 8.359 3.411 13.052 1.919 8.238 4.042 16.476 6.466 24.531 2.885 11.789 6.438 23.375 10.427 34.767l1.498 4.272 1.573 4.24 1.575 4.239 1.649 4.206 3.277 8.327c1.109 2.808 2.287 5.724 3.749 8.672 1.48 2.941 3.194 5.968 5.824 8.869l1.013 1.074c.374.349.781.691 1.176 1.03.748.695 1.716 1.299 2.654 1.889.447.311 1.005.538 1.531.782.537.233 1.062.482 1.618.672a41.97 41.97 0 0 0 1.734.45l.873.198c.292.039.585.058.879.084.588.047 1.177.083 1.765.107.132.004.327.015.408.012l.277-.005.554-.011 2.216-.043 4.438-.073 8.908-.104c5.966-.076 11.949-.092 18.152-.45 3.095-.176 6.253-.439 9.532-.994 3.264-.554 6.691-1.379 10.112-2.955 3.723-1.06 7.584-2.97 10.707-5.812 3.132-2.818 5.531-6.287 7.18-10.102 2.184-5.188 2.8-9.524 3.245-13.724.427-4.205.538-8.269 1.101-12.913 2.836-24.681 5.628-47.437 6.961-70.127 1.306-22.645 1.144-45.15-3.075-68.185-5.215-27.878-10.58-52.056-16.189-80.51l-2.962-14.931-3.119-15.03c-4.142-20.208-8.517-40.334-12.901-60.442-4.406-20.113-8.94-40.454-15.702-60.362-2.108-7.805-4.597-15.543-7.39-22.865-5.049-13.13-12.104-24.897-20.408-35.161-8.364-10.233-17.863-19.044-28.187-26.371-4.952-3.697-10.143-7.123-15.713-9.914l-2.624-1.494-2.689-1.35-2.684-1.37-1.34-.697-1.369-.625-3.139-1.468c-1.106-.527-2.263-1.1-3.5-1.571l-3.795-1.544c-1.29-.556-2.635-1.004-3.994-1.441a6006.6 6006.6 0 0 0-4.086-1.312c-1.363-.415-2.742-.697-4.084-1.02-1.345-.303-2.664-.603-3.942-.833a86.333 86.333 0 0 0-3.699-.443c-3.38-.408-6.84-.186-10.249-.026-1.706.111-3.403.354-5.084.515l-2.509.249c-.832.078-1.657.223-2.479.316l-4.353.126c-1.443.03-2.859.234-4.272.353-1.41.147-2.811.277-4.191.461l-4.072.718c-3.172.275-5.851.747-8.439 1.086l-1.92.271-1.878.378a156.92 156.92 0 0 0-3.821.832c-1.316.274-2.641.69-4.047 1.157-1.408.462-2.895.98-4.496 1.573-3.133 1.384-6.733 2.92-10.942 5.541.057.596-.388 1.325-.944 2.077-.536.779-1.163 1.611-1.546 2.337l-2.818 1.865c-5.365 2.368-11.034 5.551-15.912 8.366-.937 1.154-1.858 2.259-2.67 3.414l-2.349 3.433c-6.039 3.575-13.075 9.557-19.091 16.659-6.059 7.075-11.074 15.227-13.932 22.601l-1.944 2.693-1.859 2.805c-1.23 1.9-2.478 3.843-3.618 5.908-6.054 10.63-8.942 19.865-12.294 29.614l-1.873 3.972c-6.406 11.905-10.72 21.78-17.662 30.019l-.902 6.855c-3.01 5.805-6.396 16.259-8.208 26.532-.912 5.132-1.493 10.189-1.566 14.533-.131 4.325.288 7.945 1 10.119-.076.397-.117.751-.18 1.156-.658 3.875-1.326 7.501-2.001 11.186-4.541 13.178-5.616 24.777-5.162 37.531-.138 1.59-.309 3.191-.402 4.813l-.235 4.925a390.727 390.727 0 0 0-.297 10.265c-.057 2.051-.009 4.109.02 6.17l.088 6.191c.068 4.134.069 8.282.31 12.443l.558 12.523c.239 4.186.613 8.382.913 12.593l.476 6.327.668 6.336c.464 4.229.885 8.477 1.383 12.731 1.227 8.485 2.241 17.055 3.852 25.606.534 3.044 1.014 6.183 1.519 9.297.47 3.828.945 7.662 1.492 11.527.275 1.932.57 3.871.896 5.82.343 1.945.81 3.88 1.27 5.835 1.189 4.878 2.428 9.022 3.744 12.782 4.958 20.371 11.769 40.384 20.798 57.4l.379.929 2.686 7.703.667 1.905c.192.56.391 1.1.573 1.688.377 1.139.728 2.359 1.084 3.587-.302.641-1.025.122-1.213 1.021 1.883 4.618 3.818 10.071 6.858 15.736 1.553 2.825 3.406 5.711 5.778 8.393 2.378 2.669 5.258 5.101 8.441 6.959 1.515.898-.747.91-.526 1.251 3.417 1.367 6.413 2.103 8.863 2.594l3.308.669c.97.172 1.825.364 2.563.577 2.897.725 3.989 1.829 2.747 3.481a29.25 29.25 0 0 1 1.616-.292l.952-.139c.329-.046.695-.089.957-.143 1.157-.204 2.456-.399 3.767-.594 2.626-.393 5.303-.785 6.995-1.252 2.123.907 6.406 1.365 12.03 1.376a95.054 95.054 0 0 0 9.55-.489 59.169 59.169 0 0 0 5.827-.877c2.127-.459 4.546-1.016 7.578-2.513a21.488 21.488 0 0 0 4.586-3.09 21.907 21.907 0 0 0 3.478-4.059c1.609-2.525 2.297-4.231 2.968-5.605.652-1.382 1.225-2.566 1.875-3.728.151-.296.329-.575.491-.863l.662-1.125.9-1.543c.301-.521.467-.93.701-1.396l.639-1.346c.198-.437.353-.842.527-1.259.33-.822.688-1.653.946-2.414l.802-2.268.675-2.13a95.282 95.282 0 0 0 1.929-7.195c5.352-12.433 9.785-24.89 13.737-37.594 3.493-11.328 5.671-19.402 6.6-24.912.922-5.512.571-8.458-1.173-9.567a1076.113 1076.113 0 0 0 3.877-15.274c1.248-5.129 2.48-10.193 3.578-15.515l-3.619-.731.173-.642c-.274.249-.527.325-.789.518l-6.487-1.311-.411 1.96c-.426-.23-.844-.428-1.254-.729a1339.701 1339.701 0 0 1-5.209 24.815c-1.73 7.802-3.535 15.275-5.788 22.895-3.612 8.551-6.824 17.561-9.93 26.834-3.112 9.255-6.069 18.859-9.452 28.194-1.113 2.762-2.281 5.615-3.608 8.182l-.998 1.819-.479.732-.244.386-.42.6a58.805 58.805 0 0 0-3.193 5.059c-.843 1.479-1.599 2.96-2.204 3.991-.306.534-.561.9-.756 1.161-.2.225-.305.37-.455.464-.123.117-.352.231-.642.386l-.559.225-.694.227c-1.01.302-2.319.537-3.65.745-2.728.393-5.718.631-8.729.818-3.017.189-6.095.312-9.178.422l-9.295.26c-3.047.053-6.431.181-8.914.076-5.323-.256-9.96-1.669-13.205-4.625-1.763-1.538-3.256-3.648-4.539-6.187-1.272-2.562-2.327-5.52-3.341-8.705-1.026-3.179-2.016-6.571-3.355-10.04a52.209 52.209 0 0 0-1.083-2.612l-1.096-2.381a102.028 102.028 0 0 0-2.149-4.302c-.734-1.404-1.481-2.511-2.225-3.719-8.993-21.996-16.527-44.518-22.717-67.761l-.899-3.801a66.974 66.974 0 0 1-.835-3.815l-1.52-7.664c-.033-1.567-.072-3.166-.069-4.625l.021-3.898.087-3.74c.04-2.441.042-4.786.003-7.084a222.219 222.219 0 0 0-.229-6.8 183.568 183.568 0 0 0-.262-6.839 217.823 217.823 0 0 0-.526-7.128c-.102-1.229-.25-2.478-.346-3.764l-.298-3.957a481.961 481.961 0 0 0-.78-8.596l-.469-4.711-.374-5.047-.848-11.976-.355-12.134c-.043-2.032-.118-4.068-.124-6.109l.068-6.137c.071-4.098.066-8.21.225-12.33.404-8.24.707-16.52 1.467-24.793.549-8.283 1.534-16.546 2.366-24.8.448-4.125 1.043-8.231 1.535-12.34l.757-6.155.861-5.895c1.259-7.83 2.936-15.66 4.809-23.406 3.787-15.494 8.246-30.688 12.874-45.417a319.482 319.482 0 0 1 12.415-33.161c8.158-14.978 17.484-29.317 28.197-42.418 5.365-6.537 11.112-12.736 17.323-18.35 6.204-5.611 12.862-10.675 20.007-14.735a87.02 87.02 0 0 0 3.601-1.361l1.785-.741a60.225 60.225 0 0 0 1.847-.704 52.539 52.539 0 0 0 3.672-1.631c1.236-.567 2.504-1.116 3.76-1.783.676.813 2.04 1.139 3.961 1.231.968.068 2.07.059 3.284-.018 1.22-.056 2.524-.276 3.98-.358 5.734-.643 13.158-1.541 21.047-1.931 7.888-.401 16.241-.155 23.649.712l2.734.335 1.335.155c.438.063.866.152 1.293.224l4.89.824 4.273.934 1.899.387 1.678.441c.874-.202.231-.935 1.009-1.202l3.607 1.261c1.255.496 2.557 1.073 3.932 1.64l2.102.876 2.108 1.051c1.418.736 2.929 1.396 4.393 2.245 5.927 3.261 12.033 7.533 17.484 12.34 5.465 4.791 10.269 10.088 13.967 14.97 3.734 4.86 6.272 9.37 7.61 12.42 4.889 4.679 9.477 11.369 13.335 15.903 3.756 7.538 6.976 15.396 9.841 23.386.628 8.589-.797 14.991.667 25.136 3.631 2.42 7.084 9.76 9.831 18.364 2.768 8.591 4.883 18.404 6.387 25.562 1.357 6.439 2.985 16.645 4.879 26.358-.17.71-.4 1.198-.767 1.183 1.201 8.551 3.253 16.293 5.165 24.691-.232-.24-.495-.562-.886-1.224 1.755 12.414 4.843 21.898 8.711 24.907l1.394 7.304c.51 6.644.518 12.507.784 18.501.118 2.999.333 6.028.584 9.219.251 3.191.619 6.535 1.171 10.155 1.227 7.592 2.794 15.425 4.548 23.307.909 3.938 1.648 7.905 2.429 11.854.753 3.952 1.506 7.89 2.068 11.795a314.477 314.477 0 0 0 1.747 11.646c.554 3.343 1.19 6.255 1.673 9.087 2.021 25.008 2.726 50.121 1.072 75.036-2.188 13.726-4.097 26.309-6.434 39.119-1.22 6.339-2.516 12.74-4.607 18.481-1.048 2.852-2.338 5.454-3.932 7.457-.819.975-1.666 1.862-2.699 2.556-.986.748-2.172 1.326-3.492 1.848-2.644.996-6.124 1.622-10.014 1.93-3.885.322-8.108.429-12.336.552-8.477.215-16.978.584-23.684 1.849-.2.031-.323.061-.523.105l-.866.017-.433.008a1.726 1.726 0 0 1-.348-.008 8.413 8.413 0 0 0-.925-.058 5.807 5.807 0 0 0-.873-.219c-.284-.137-.568-.275-.867-.384-1.164-.618-2.385-1.782-3.499-3.26-2.261-2.969-4.046-6.963-5.717-11.067l-5.025-12.752c-.851-2.113-1.6-4.259-2.406-6.387a228.305 228.305 0 0 1-2.32-6.414c-6.093-17.141-11.012-34.606-14.336-52.418-.851-4.459-1.586-8.936-2.385-13.517-.421-2.307-.818-4.609-1.398-7.034-.594-2.412-1.211-4.924-2.634-7.654-.372-.677-.817-1.361-1.241-2.028a26.631 26.631 0 0 0-1.64-1.927c-.646-.56-1.282-1.177-1.984-1.635l-1.07-.664c-.36-.224-.721-.432-1.08-.574-2.925-1.37-5.68-1.829-8.201-2.104-1.306-.185-2.497-.2-3.75-.301l-3.617-.101-6.986-.002-55.111.073.021 10.949zm-69.922 135.378 2.631.323 2.601.166c.859.026 1.711.023 2.567.032.865.008 1.552-.021 2.337-.03l9.155-.187.566.383-9.44-.003-2.383-.013-2.647-.074-2.68-.219-2.707-.378zm64.62-16.765c-.041.013-.074.038-.122.061.274-.378.565-.734.86-1.097a24.04 24.04 0 0 0-.738 1.036z"/><path fill="#75DBF4" d="M158.504 257.257c-42.527 11.505-44.456 43.122-28.696 82.009 30.912 76.274 233.276 25.005 170.93-60.124-29.805-40.697-141.217-22.16-142.234-21.885z"/><path fill="#FFF" d="M169.331 277.406c-15.054 2.53-15.737 9.482-10.158 18.032 10.942 16.771 82.576 5.498 60.506-13.22-10.55-8.949-49.988-4.873-50.348-4.812z"/><path fill="#235685" d="M300.738 279.142c-4.195-5.728-10.007-10.282-16.9-13.879 20.099 61.797-99.842 99.089-156.282 68.157a177.517 177.517 0 0 0 2.252 5.846c30.913 76.273 233.276 25.004 170.93-60.124z"/><path d="M158.543 257.4c.336 1.188.638 2.385.904 3.591l.193.905.091.45-.013.003-.051.011c-.109.022-.044.009-.026.006l.145-.026.343-.058.723-.118 1.48-.229 2.994-.431c2.003-.277 4.015-.535 6.03-.776.918.48 1.934.856 3.081 1.248 5.716 1.951 10.501-.506 16.258-1.895a165.276 165.276 0 0 1 7.482-1.617c14.481-.694 29.005-.618 43.268.905 1.725 1.189 3.208 2.849 5.229 3.309 2.736.614 4.899-.802 7.661-.724 7.318.223 13.582 3.303 18.962 6.768 2.702 1.735 5.198 3.566 7.64 5.252 2.449 1.693 4.835 3.223 7.512 4.55 1.601.825 3.137 1.71 4.5 2.751.714.5 1.345 1.061 1.991 1.627.649.572 1.307 1.335 1.953 2.01a37.26 37.26 0 0 1 6.58 9.562l.88 1.921c.273.65.482 1.318.729 1.979.221.666.518 1.321.683 2l.561 2.025c.203.681.304 1.372.417 2.063.11.69.248 1.378.342 2.069.074 1.384.311 2.769.239 4.15.09 2.77-.341 5.51-.918 8.206-.627 2.695-1.64 5.304-2.829 7.848-.321.627-.672 1.243-1.004 1.867l-.503.934-.576.901-1.149 1.805-1.28 1.738c-.797.779-1.713 1.471-2.554 2.182-.824.723-1.749 1.352-2.6 1.992-3.111 2.234-5.661 4.763-8.299 7.252-2.623 2.479-5.2 5.025-8.14 7.008-1.464.908-3.008 1.701-4.521 2.538-1.033.442-2.11.791-3.219 1.053-2.395.58-6.423.698-8.745 1.733-1.671.757-3.11 2.295-4.724 3.24-1.614.313-3.132.729-4.578 1.169-3.61.258-5.338-.604-10.152 1.52.112.951-.405 1.649-.612 2.451-.29.121-.593.221-.888.333-1.775-.454-3.652-.711-5.335-1.35-.702.576-1.346 1.226-1.989 1.876-4.311-1.908-10.437-1.848-14.571 1.305-1.267-.083-2.553-.103-3.892.065-1.734.203-3.263.634-4.738 1.219-1.475.553-2.897 1.17-4.398 1.709-.429.015-.858-.002-1.287-.004-1.97-.398-3.738-.683-5.343-1.367a10.628 10.628 0 0 1-2.289-1.267 10.614 10.614 0 0 1-2.039-2.1c-.679.372-1.337.721-1.991 1.036-.865-.51-2.041-.891-3.368-1.107-1.329-.212-2.783-.369-4.247-.304-1.456.039-2.89.176-4.175.545-1.279.355-2.379.835-3.155 1.589-.109-.048-.21-.071-.323-.109-1.081-.394-2.058-.863-3.04-1.342-3.099-3.481-5.914-4.6-9.555-4.99a42.878 42.878 0 0 0-2.397-1.205 31.692 31.692 0 0 0-2.523-1.196c-8.134-3.597-15.65-9.045-20.666-16.758-.418-.698-.8-1.444-1.203-2.171l-.211-.744-.153-.769a32.546 32.546 0 0 0-.339-1.51c-.253-.927-.558-2.12-1.003-3.186a16.676 16.676 0 0 0-1.916-3.418c-1.896-5.835-3.602-11.509-6.412-16.546l-.061-.283c-.029-1.58-.113-3.145-.076-4.698.396-.208.867-.059 1.229-.343-.899-2.801-1.87-5.947-1.412-9.032.093-.365.985.061 1.16-.013-.664-1.444-.669-2.554-.212-3.176.503-.616 1.482-.736 2.885-.362-.333-.398-.562-1.066-.783-1.761-.178-.677-.354-1.382-.642-1.87 1.814-.756 2.627-3.595 3.592-6.568.259-.737.432-1.543.708-2.287.123-.381.236-.768.341-1.156l.381-1.111.338-1.094c.131-.343.251-.681.36-1.01l.56-1.791c2.622-2.044 5.469-3.684 8.41-5.334 2.618-1.483 4.632-2.381 5.784-3.427 1.136-1.066 1.546-2.138 1.067-3.791 2.752-1.154 5.664-2.036 8.586-2.882l-.833-3.053.198-.022c-.134-.156-.221-.338-.34-.498l-1.493-5.472-.64.188c-.065-.396-.135-.778-.175-1.182-5.747 1.907-9.986 4.483-14.779 6.681-3.206.478-6.305 1.839-9.201 3.739-2.861 1.971-5.457 4.572-7.61 7.575-.677.894-1.425 1.758-2.056 2.771-.664.988-1.352 2.013-1.967 3.164-2.223 3.883-3.709 8.151-4.596 12.429-.894 4.288-1.218 8.587-1.294 12.811-.093 4.439-.503 9.708 1.362 13.636.221.495.521.883.82 1.292 1.682 7.683 4.447 14.916 7.867 21.812l.912 2.319c.321.782.711 1.602 1.065 2.401.003.573.014 1.164-.003 1.721.015 1.997.162 3.841.543 5.528a26.571 26.571 0 0 0 1.185 3.641c.181.38.375.758.579 1.136.408.756.86 1.513 1.361 2.282.501.77 1.125 1.481 1.767 2.253 1.27 1.563 2.922 3.048 4.861 4.705 8.968 7.351 19.358 13.261 30.292 16.8 10.909 3.51 22.288 4.612 32.535 2.336 4.099-.962 7.786-1.81 11.47-2.885 10.965-.496 21.845-2.129 32.486-4.761 1.794.194 3.583.082 5.226-1.012 1.34 3.121 6.554 3.046 12.029 1.329 5.489-1.661 11.077-4.998 13.56-7.041.06-.502-.385-.725-.374-1.228 2.98-1.552 7.497-4.378 11.707-7.185 4.247-2.754 8.113-5.629 10.604-6.273.48-1.262 1.134-2.46 1.743-3.618.596-1.175 1.108-2.361 1.367-3.479 2.029-1.969 3.927-4.094 5.727-6.313 1.624-.492 3.283-.784 4.977-1.239 1.654-.491 3.288-1.215 4.792-2.585-.752-1.175-1.058-2.542-1.072-3.98.007-1.427.139-3.039.515-4.589.171-.785.308-1.606.51-2.395.178-.799.445-1.562.592-2.349.329-1.558.799-2.994.999-4.259.21-1.128.661-2.549.909-4.167.14-.805.321-1.65.426-2.515.076-.866.141-1.75.18-2.628.27-.237.551-.398.856-.373.275-1.561.108-3.064-.043-4.556-.228-1.48-.643-2.918-.953-4.423.167.068.35.164.602.381-.028-1.148-.292-2.177-.563-3.128-.293-.942-.641-1.792-1.165-2.454-1.001-1.351-2.278-2.149-3.787-2.233-.295-.772-.637-1.52-.956-2.28-.486-4.56-.427-8.526-3.04-12.833-.716-1.095-1.554-2.142-2.455-3.151-.435-.498-1.027-1.045-1.552-1.548a20.174 20.174 0 0 0-1.689-1.458c-2.302-1.882-4.786-3.411-7.051-4.94-1.301-.919-2.486-1.501-3.528-2.02-1.075-.457-2.026-.827-2.986-1.088-7.124-4.397-14.843-7.322-22.624-9.472-4.053-2.187-8.108-3.377-12.267-4.183-4.168-.8-8.456-1.2-13.172-1.691-4.651-.511-11.045-1.667-15.329.09-.063.02-.103.043-.167.075-11.521-.458-23.019-.209-34.469.52a396.252 396.252 0 0 0-25.693 2.482l-4.277.589-2.146.322-1.084.173-.555.093-.298.052-.156.028-.451.1 1.118 4.142zm-32.456 39.879c.116-1.685.314-3.35.615-4.979l.358-.086a44.142 44.142 0 0 0-.973 5.065zm5.834-15.783c-.024-.003-.04.001-.067 0 .085-.111.187-.208.288-.308-.079.099-.156.2-.221.308z"/></svg>