<svg xmlns="http://www.w3.org/2000/svg" viewBox="0 0 64 64"><g data-name="Layer 6"><path fill="#2ea9ff" d="M6.03 3h51.94v33.47H6.03z"/><path d="M58 37.47H6a1 1 0 0 1-1-1V3a1 1 0 0 1 1-1h52a1 1 0 0 1 1 1v33.47a1 1 0 0 1-1 1Zm-51-2h50V4H7Z"/><rect width="8" height="8" x="38" y="25" fill="#bfbfbf" rx="3.25" ry="3.25"/><path d="M42.75 34h-1.5A4.26 4.26 0 0 1 37 29.75v-1.5A4.26 4.26 0 0 1 41.25 24h1.5A4.26 4.26 0 0 1 47 28.25v1.5A4.26 4.26 0 0 1 42.75 34Zm-1.5-8A2.25 2.25 0 0 0 39 28.25v1.5A2.25 2.25 0 0 0 41.25 32h1.5A2.25 2.25 0 0 0 45 29.75v-1.5A2.25 2.25 0 0 0 42.75 26Z"/><path d="M58 37.47H6a1 1 0 0 1-1-1V3a1 1 0 0 1 1-1h52a1 1 0 0 1 1 1v33.47a1 1 0 0 1-1 1Zm-51-2h50V4H7Z"/><path fill="#b90005" d="M43.39 29.68v28.47A2.85 2.85 0 0 1 40.54 61h-1.42a2.85 2.85 0 0 1-2.85-2.85A4.27 4.27 0 0 0 32 53.88a4.27 4.27 0 0 0-4.27 4.27A2.85 2.85 0 0 1 24.88 61h-1.42a2.85 2.85 0 0 1-2.85-2.85v-28a11.69 11.69 0 0 1 10.57-11.8 11.4 11.4 0 0 1 12.21 11.33Z"/><rect width="14.24" height="12.81" x="24.88" y="33.95" fill="#b90005" rx="2.42" ry="2.42"/><path d="M40.54 62h-1.42a3.86 3.86 0 0 1-3.85-3.85 3.27 3.27 0 0 0-6.54 0A3.86 3.86 0 0 1 24.88 62h-1.42a3.86 3.86 0 0 1-3.85-3.85v-28a12.65 12.65 0 0 1 11.5-12.79 12.4 12.4 0 0 1 13.28 12.32v28.47A3.86 3.86 0 0 1 40.54 62ZM32 52.88a5.28 5.28 0 0 1 5.27 5.27A1.85 1.85 0 0 0 39.12 60h1.42a1.85 1.85 0 0 0 1.85-1.85V29.68a10.39 10.39 0 0 0-11.14-10.36 10.66 10.66 0 0 0-9.64 10.8v28A1.85 1.85 0 0 0 23.46 60h1.42a1.85 1.85 0 0 0 1.85-1.85A5.28 5.28 0 0 1 32 52.88Z"/><path d="M36.7 47.76h-9.4a3.42 3.42 0 0 1-3.42-3.41v-8A3.42 3.42 0 0 1 27.3 33h9.4a3.42 3.42 0 0 1 3.42 3.42v8a3.42 3.42 0 0 1-3.42 3.34ZM27.3 35a1.43 1.43 0 0 0-1.42 1.42v8a1.42 1.42 0 0 0 1.42 1.41h9.4a1.42 1.42 0 0 0 1.42-1.41v-8A1.43 1.43 0 0 0 36.7 35Z"/><path fill="#b90005" d="M6.03 8.19h5.77v4.62H6.03z"/><path d="M11.8 13.81H6a1 1 0 0 1-1-1V8.19a1 1 0 0 1 1-1h5.8a1 1 0 0 1 1 1v4.62a1 1 0 0 1-1 1Zm-4.8-2h3.8V9.19H7Z"/><path fill="#270073" d="M6.03 17.43h5.77v4.62H6.03z"/><path d="M11.8 23H6a1 1 0 0 1-1-1v-4.57a1 1 0 0 1 1-1h5.8a1 1 0 0 1 1 1V22a1 1 0 0 1-1 1ZM7 21h3.8v-2.57H7Z"/><path fill="#c0a800" d="M6.03 26.66h5.77v4.62H6.03z"/><path d="M11.8 32.28H6a1 1 0 0 1-1-1v-4.62a1 1 0 0 1 1-1h5.8a1 1 0 0 1 1 1v4.62a1 1 0 0 1-1 1Zm-4.8-2h3.8v-2.62H7Z"/><path fill="#c0a800" d="M52.2 8.19h5.77v4.62H52.2z"/><path d="M58 13.81h-5.8a1 1 0 0 1-1-1V8.19a1 1 0 0 1 1-1H58a1 1 0 0 1 1 1v4.62a1 1 0 0 1-1 1Zm-4.77-2H57V9.19h-3.8Z"/><path fill="#270073" d="M52.2 17.43h5.77v4.62H52.2z"/><path d="M58 23h-5.8a1 1 0 0 1-1-1v-4.57a1 1 0 0 1 1-1H58a1 1 0 0 1 1 1V22a1 1 0 0 1-1 1Zm-4.8-2H57v-2.57h-3.8Z"/><path fill="#b90005" d="M52.2 26.66h5.77v4.62H52.2z"/><path d="M58 32.28h-5.8a1 1 0 0 1-1-1v-4.62a1 1 0 0 1 1-1H58a1 1 0 0 1 1 1v4.62a1 1 0 0 1-1 1Zm-4.77-2H57v-2.62h-3.8Z"/></g></svg>